{"title":"Don Peyote 2014 UNRATED HDRIP x264 AC3 TiTAN","uid":10119960,"size":1482074459,"categoryP":"video","categoryS":"movies","magnet":"?xt=urn:btih:3c8c5660ce252142b289b9e23460cbe80325d562&amp;dn=Don+Peyote+2014+UNRATED+HDRIP+x264+AC3+TiTAN&amp;tr=udp%3A%2F%2Ftracker.openbittorrent.com%3A80&amp;tr=udp%3A%2F%2Fopen.demonii.com%3A1337&amp;tr=udp%3A%2F%2Ftracker.coppersurfer.tk%3A6969&amp;tr=udp%3A%2F%2Fexodus.desync.com%3A6969","seeders":14,"leechers":1,"uploader":"xxxlavalxxx","files":-1,"time":1399659150,"description":" &lt;a href=&quot;http://www.imdb.com/title/tt1828968/&quot; rel=&quot;nofollow&quot; target=&quot;_NEW&quot;&gt;http://www.imdb.com/title/tt1828968/&lt;/a&gt;\n\n\nDON PEYOTE tells the story Warren Allman, an unemployed stoner who finally finds a purpose in life after an unpleasant encounter with a homeless man preaching the end is near. Fueled by vivid apocalyptic dreams, Warren becomes obsessed with 2012 doomsday theories and decides to make a documentary on the subject while his fiance is busy planning their wedding.\n\nDirectors: Michael Canzoniero, Dan Fogler\nWriters: Michael Canzoniero, Dan Fogler\nStars: Anne Hathaway, Jay Baruchel, Josh Duhamel\nGenres: Comedy | Drama\nCountry: USA\nLanguage: English\n\n\n\nSource: Own\n\nGeneral\n\nFormat: Matroska\nFormat version: Version 2\nFile size: 1.38 GiB\nDuration: 1h 39mn\nOverall bit rate mode: Variable\nOverall bit rate: 1 988 Kbps\nEncoded date: UTC 2014-05-09 14:10:31\nWriting application: mkvmerge v6.9.1 ('Blue Panther') 32bit built on Apr 18 2014 18:15:44\nWriting library: libebml v1.3.0 + libmatroska v1.4.1\n\nVideo\nID: 1\nFormat: AVC\nFormat/Info: Advanced Video Codec\nFormat profile: &lt;a class=&quot;__cf_email__&quot; href=&quot;/cdn-cgi/l/email-protection&quot; data-cfemail=&quot;652d0c020d2529514b54&quot;&gt;[email&amp;#160;protected]&lt;/a&gt;&lt;script cf-hash='f9e31' type=&quot;text/javascript&quot;&gt;\n/* &lt;![CDATA[ */!function(){try{var t=&quot;currentScript&quot;in document?document.currentScript:function(){for(var t=document.getElementsByTagName(&quot;script&quot;),e=t.length;e--;)if(t[e].getAttribute(&quot;cf-hash&quot;))return t[e]}();if(t&amp;&amp;t.previousSibling){var e,r,n,i,c=t.previousSibling,a=c.getAttribute(&quot;data-cfemail&quot;);if(a){for(e=&quot;&quot;,r=parseInt(a.substr(0,2),16),n=2;a.length-n;n+=2)i=parseInt(a.substr(n,2),16)^r,e+=String.fromCharCode(i);e=document.createTextNode(e),c.parentNode.replaceChild(e,c)}}}catch(u){}}();/* ]]&gt; */&lt;/script&gt;\nFormat settings, CABAC: Yes\nFormat settings, ReFrames: 3 frames\nCodec ID: V_MPEG4/ISO/AVC\nDuration: 1h 39mn\nBit rate mode: Variable\nBit rate: 1 564 Kbps\nMaximum bit rate: 40.0 Mbps\nWidth: 720 pixels\nHeight: 400 pixels\nDisplay aspect ratio: 16:9\nFrame rate mode: Constant\nFrame rate: 23.976 fps\nColor space: YUV\nChroma subsampling: 4:2:0\nBit depth: 8 bits\nScan type: Progressive\nBits/(Pixel*Frame): 0.227\nStream size: 1.09 GiB (79%)\nWriting library: x264 core 142 r2409 d6b4e63\nDefault: Yes\nForced: No\nColor primaries: BT.709\nTransfer characteristics: BT.709\nMatrix coefficients: BT.709\n\nAudio\nID: 2\nFormat: AC-3\nFormat/Info: Audio Coding 3\nMode extension: CM (complete main)\nFormat settings, Endianness: Big\nCodec ID: A_AC3\nDuration: 1h 39mn\nBit rate mode: Constant\nBit rate: 384 Kbps\nChannel(s): 6 channels\nChannel positions: Front: L C R, Side: L R, LFE\nSampling rate: 48.0 KHz\nBit depth: 16 bits\nCompression mode: Lossy\nStream size: 273 MiB (19%)\nLanguage: English\nDefault: Yes\nForced: No \n\n\nscreens\n &lt;a href=&quot;\nhttp://i.imgur.com/OtZ1uf6.jpg&quot; rel=&quot;nofollow&quot; target=&quot;_NEW&quot;&gt;\nhttp://i.imgur.com/OtZ1uf6.jpg&lt;/a&gt; &lt;a href=&quot;\nhttp://i.imgur.com/kxpzqrn.jpg&quot; rel=&quot;nofollow&quot; target=&quot;_NEW&quot;&gt;\nhttp://i.imgur.com/kxpzqrn.jpg&lt;/a&gt; &lt;a href=&quot;\nhttp://i.imgur.com/n8DVkCw.jpg&quot; rel=&quot;nofollow&quot; target=&quot;_NEW&quot;&gt;\nhttp://i.imgur.com/n8DVkCw.jpg&lt;/a&gt; &lt;a href=&quot;\nhttp://i.imgur.com/9vpD5Fv.jpg&quot; rel=&quot;nofollow&quot; target=&quot;_NEW&quot;&gt;\nhttp://i.imgur.com/9vpD5Fv.jpg&lt;/a&gt;","torrent":{"xt":"urn:btih:3c8c5660ce252142b289b9e23460cbe80325d562","amp;dn":"Don+Peyote+2014+UNRATED+HDRIP+x264+AC3+TiTAN","amp;tr":["udp%3A%2F%2Ftracker.openbittorrent.com%3A80","udp%3A%2F%2Fopen.demonii.com%3A1337","udp%3A%2F%2Ftracker.coppersurfer.tk%3A6969","udp%3A%2F%2Fexodus.desync.com%3A6969"],"infoHash":"3c8c5660ce252142b289b9e23460cbe80325d562","infoHashBuffer":{"type":"Buffer","data":[60,140,86,96,206,37,33,66,178,137,185,226,52,96,203,232,3,37,213,98]},"announce":[],"urlList":[]}}